<?xml version="1.0" encoding="utf-8"?>
<!-- Generator: Adobe Illustrator 19.1.0, SVG Export Plug-In . SVG Version: 6.00 Build 0)  -->
<svg version="1.1" id="Layer_1" xmlns="http://www.w3.org/2000/svg" xmlns:xlink="http://www.w3.org/1999/xlink" x="0px" y="0px"
	 viewBox="-73 129 50 50" style="enable-background:new -73 129 50 50;" xml:space="preserve">
<path d="M-66.4,171.6c-3.6,0-6.6-2.6-6.6-5.9v-23.5c0-3.2,3-5.9,6.6-5.9h36.8c3.6,0,6.6,2.6,6.6,5.9v23.5c0,3.2-3,5.9-6.6,5.9
	C-29.6,171.6-66.4,171.6-66.4,171.6z M-68.1,166.4l0.9,0.3c0.3,0.1,0.6,0.2,0.9,0.2h36.8c0.3,0,0.6-0.1,0.9-0.2l0.9-0.3l-12.5-9.7
	l-7.7,5.8l-7.7-5.8L-68.1,166.4z M-68.3,161.4l9.3-7.2l-9.3-7C-68.3,147.3-68.3,161.4-68.3,161.4z M-37,154.2l9.3,7.2v-14.2
	L-37,154.2z M-66.4,141.1c-0.2,0-0.5,0-0.7,0.1l-1,0.3l20.1,15.1l20.1-15.1l-1-0.3c-0.2-0.1-0.5-0.1-0.7-0.1H-66.4L-66.4,141.1z"/>
</svg>
