<?xml version="1.0" encoding="utf-8"?>
<!-- Generator: Adobe Illustrator 16.0.0, SVG Export Plug-In . SVG Version: 6.00 Build 0)  -->
<!DOCTYPE svg PUBLIC "-//W3C//DTD SVG 1.1//EN" "http://www.w3.org/Graphics/SVG/1.1/DTD/svg11.dtd">
<svg version="1.1" id="Layer_1" xmlns="http://www.w3.org/2000/svg" xmlns:xlink="http://www.w3.org/1999/xlink" x="0px" y="0px"
	 width="50px" height="50px" viewBox="0 0 50 50" enable-background="new 0 0 50 50" xml:space="preserve">
<path d="M28.02,36.945c0,3.812-0.004,7.621,0,11.433c0.002,1.341-0.205,1.534-1.568,1.528c-2.298-0.012-4.597-0.008-6.896,0.002
	c-1.256,0.005-1.534-0.223-1.539-1.506c-0.008-2.129,0.044-4.254,0.042-6.381c-0.003-3.105-0.047-6.211-0.045-9.316
	c0.002-2.491,0.029-4.982,0.084-7.473c0.017-0.71-0.292-0.972-0.94-0.965c-1.038,0.011-2.075,0.001-3.11,0.042
	c-0.72,0.028-1.052-0.309-1.055-0.988c-0.01-1.99-0.006-3.981-0.002-5.97c0.001-0.705,0.359-0.993,1.064-0.963
	c1.008,0.041,2.018,0.021,3.027,0.039c0.72,0.013,1.014-0.23,1.021-1.042c0.021-2.685-0.016-5.388,0.288-8.047
	c0.323-2.836,2.09-4.841,4.591-6.129c2.296-1.183,4.798-1.217,7.305-1.031c1.62,0.119,3.235,0.301,4.853,0.476
	c0.385,0.041,0.77,0.147,1.143,0.26c0.564,0.171,0.813,0.571,0.72,1.158c-0.312,1.963-0.617,3.926-0.944,5.885
	c-0.123,0.731-0.509,0.959-1.313,0.871c-1.521-0.169-3.068-0.262-4.595-0.182c-1.383,0.073-2.119,1.029-2.141,2.439
	c-0.021,1.4,0.004,2.802-0.006,4.203c-0.008,1.019,0.111,1.143,1.152,1.138c1.767-0.008,3.531-0.013,5.299-0.015
	c1.667-0.001,1.744,0.077,1.607,1.706c-0.139,1.675-0.31,3.347-0.432,5.023c-0.061,0.825-0.404,1.188-1.271,1.161
	c-1.736-0.052-3.476-0.022-5.213-0.033c-1-0.005-1.145,0.15-1.143,1.161c0.006,3.84,0.002,7.68,0.002,11.519
	C28.008,36.945,28.014,36.945,28.02,36.945z"/>
</svg>
