<?xml version="1.0" encoding="utf-8"?>
<!-- Generator: Adobe Illustrator 16.0.0, SVG Export Plug-In . SVG Version: 6.00 Build 0)  -->
<!DOCTYPE svg PUBLIC "-//W3C//DTD SVG 1.1//EN" "http://www.w3.org/Graphics/SVG/1.1/DTD/svg11.dtd">
<svg version="1.1" id="Layer_1" xmlns="http://www.w3.org/2000/svg" xmlns:xlink="http://www.w3.org/1999/xlink" x="0px" y="0px"
	 width="50px" height="50px" viewBox="0 0 50 50" enable-background="new 0 0 50 50" xml:space="preserve">
<path d="M24.979,49.932c-4.973,0-9.947,0.002-14.92,0c-5.567,0-9.949-4.287-10.048-9.884C-0.039,37.251,0,34.452,0,31.654
	c0-7.148-0.016-14.298,0.005-21.447C0.02,5.156,3.448,1.026,8.287,0.18C8.812,0.088,9.355,0.075,9.89,0.074
	C19.922,0.068,29.953,0.069,39.984,0.07c5.445,0,9.826,4.217,9.998,9.672c0.063,2.061,0.019,4.125,0.02,6.188
	c0.001,7.94,0.014,15.88-0.005,23.822c-0.011,5.098-3.45,9.245-8.324,10.078c-0.497,0.085-1.012,0.097-1.519,0.098
	C35.096,49.936,30.037,49.932,24.979,49.932z M39.881,21.261c1.239,6.979-0.73,12.689-6.652,16.585
	c-5.195,3.418-10.804,3.536-16.107,0.305c-6.271-3.821-8.408-9.664-7.157-16.852c-1.396,0-2.786,0-4.224,0c0,0.349,0,0.628,0,0.908
	c0,6.133-0.001,12.268,0.001,18.398c0.001,2.393,1.203,3.594,3.597,3.594c10.4,0.002,20.801,0.002,31.202,0
	c2.354,0,3.567-1.199,3.569-3.528c0.004-6.188,0.002-12.379,0-18.569c0-0.271-0.026-0.543-0.043-0.84
	C42.641,21.261,41.292,21.261,39.881,21.261z M34.563,24.993c-0.008-5.286-4.316-9.613-9.599-9.634
	c-5.308-0.021-9.681,4.342-9.672,9.649c0.008,5.283,4.328,9.617,9.604,9.633C30.208,34.658,34.566,30.309,34.563,24.993z
	 M44.109,10.659c0-0.537,0.01-1.073-0.002-1.61c-0.039-1.832-1.332-3.146-3.154-3.183c-1.102-0.022-2.203-0.022-3.305,0
	c-1.715,0.035-3.037,1.239-3.137,2.94c-0.072,1.238-0.07,2.487-0.003,3.726c0.093,1.713,1.396,2.927,3.107,2.965
	c1.129,0.025,2.26,0.027,3.389-0.001c1.781-0.043,3.058-1.349,3.101-3.144C44.12,11.789,44.107,11.224,44.109,10.659z"/>
</svg>
