<?xml version="1.0" encoding="utf-8"?>
<!-- Generator: Adobe Illustrator 19.1.0, SVG Export Plug-In . SVG Version: 6.00 Build 0)  -->
<svg version="1.1" id="Layer_1" xmlns="http://www.w3.org/2000/svg" xmlns:xlink="http://www.w3.org/1999/xlink" x="0px" y="0px"
	 viewBox="0 0 138.2 57.7" style="enable-background:new 0 0 138.2 57.7;" xml:space="preserve">
<path d="M106.4,52c-0.9,0-1.8-0.5-2.2-1.3l-4.6-9.3H23.3c-9.1,0-16.6-7.4-16.6-16.6S14.2,8.1,23.3,8.1h91.2
	c9.1,0,16.6,7.4,16.6,16.6s-7.4,16.6-16.6,16.6h-1.3l-4.6,9.3C108.2,51.5,107.4,52,106.4,52z M23.3,10.6c-7.8,0-14.2,6.3-14.2,14.2
	s6.3,14.2,14.2,14.2h77.1c0.5,0,0.9,0.3,1.1,0.7l5,10l5-10c0.2-0.4,0.6-0.7,1.1-0.7h2c7.8,0,14.2-6.3,14.2-14.2s-6.3-14.2-14.2-14.2
	H23.3z"/>
<g>
	<path d="M25.5,23.2h-1.9v2.4c0,0.2,0,0.4,0,0.5c0,0.2,0.1,0.3,0.1,0.4c0.1,0.1,0.2,0.2,0.3,0.3s0.3,0.1,0.6,0.1c0.1,0,0.3,0,0.5,0
		c0.2,0,0.3-0.1,0.4-0.2v1.8c-0.2,0.1-0.5,0.1-0.8,0.2c-0.3,0-0.5,0-0.8,0c-0.4,0-0.7,0-1-0.1c-0.3-0.1-0.6-0.2-0.8-0.4
		c-0.2-0.2-0.4-0.4-0.5-0.7c-0.1-0.3-0.2-0.6-0.2-1v-3.4H20v-1.8h1.4v-2.1h2.2v2.1h1.9V23.2z"/>
</g>
<g>
	<path d="M31.1,27.6L31.1,27.6c-0.3,0.4-0.6,0.7-1,0.8c-0.4,0.2-0.8,0.2-1.3,0.2c-0.3,0-0.7,0-1-0.1c-0.3-0.1-0.6-0.2-0.8-0.4
		c-0.2-0.2-0.4-0.4-0.6-0.7c-0.1-0.3-0.2-0.6-0.2-1c0-0.4,0.1-0.8,0.2-1c0.2-0.3,0.4-0.5,0.6-0.7c0.3-0.2,0.6-0.3,0.9-0.4
		c0.3-0.1,0.7-0.2,1-0.2c0.4,0,0.7-0.1,1.1-0.1c0.4,0,0.7,0,1,0c0-0.4-0.1-0.7-0.4-0.9c-0.3-0.2-0.6-0.3-1-0.3c-0.4,0-0.7,0.1-1,0.2
		c-0.3,0.2-0.6,0.4-0.8,0.6l-1.2-1.2c0.4-0.4,0.9-0.7,1.4-0.9c0.5-0.2,1.1-0.3,1.7-0.3c0.6,0,1.2,0.1,1.6,0.2c0.4,0.2,0.7,0.4,1,0.7
		c0.2,0.3,0.4,0.7,0.5,1.2c0.1,0.5,0.1,1,0.1,1.6v3.6h-2V27.6z M30.5,25.4c-0.2,0-0.4,0-0.6,0c-0.2,0-0.5,0.1-0.7,0.1
		s-0.4,0.2-0.6,0.3c-0.2,0.1-0.2,0.3-0.2,0.6c0,0.3,0.1,0.5,0.3,0.6c0.2,0.1,0.5,0.2,0.7,0.2c0.2,0,0.4,0,0.6-0.1
		c0.2-0.1,0.4-0.1,0.5-0.2c0.2-0.1,0.3-0.2,0.4-0.4c0.1-0.2,0.1-0.4,0.1-0.6v-0.5H30.5z"/>
</g>
<g>
	<path d="M34.5,17.5h2.2v11.1h-2.2V17.5z"/>
</g>
<g>
	<path d="M38.3,17.5h2.2v6.8l2.4-2.8h2.7l-2.8,3.2l2.9,3.9h-2.8l-2.4-3.6h0v3.6h-2.2V17.5z"/>
</g>
<g>
	<path d="M51,21.4h2v0.9h0c0.1-0.1,0.2-0.3,0.3-0.4c0.1-0.1,0.3-0.3,0.5-0.4c0.2-0.1,0.4-0.2,0.6-0.3c0.2-0.1,0.5-0.1,0.7-0.1
		c0.5,0,1,0.1,1.4,0.3c0.4,0.2,0.8,0.4,1.1,0.8c0.3,0.3,0.5,0.7,0.7,1.2c0.2,0.4,0.2,0.9,0.2,1.5c0,0.5-0.1,1-0.2,1.4
		c-0.2,0.5-0.4,0.9-0.6,1.2c-0.3,0.4-0.6,0.6-1,0.8c-0.4,0.2-0.9,0.3-1.4,0.3c-0.5,0-0.9-0.1-1.3-0.2c-0.4-0.1-0.7-0.4-1-0.7h0v4.1
		H51V21.4z M53,25c0,0.5,0.2,1,0.5,1.3c0.3,0.3,0.7,0.5,1.3,0.5c0.6,0,1-0.2,1.3-0.5c0.3-0.3,0.5-0.8,0.5-1.3s-0.2-1-0.5-1.3
		c-0.3-0.3-0.7-0.5-1.3-0.5c-0.6,0-1,0.2-1.3,0.5C53.2,24,53,24.4,53,25z"/>
</g>
<g>
	<path d="M64.5,27.6L64.5,27.6c-0.3,0.4-0.6,0.7-1,0.8s-0.8,0.2-1.3,0.2c-0.3,0-0.7,0-1-0.1c-0.3-0.1-0.6-0.2-0.8-0.4
		c-0.2-0.2-0.4-0.4-0.6-0.7c-0.1-0.3-0.2-0.6-0.2-1c0-0.4,0.1-0.8,0.2-1c0.2-0.3,0.4-0.5,0.6-0.7c0.3-0.2,0.6-0.3,0.9-0.4
		c0.3-0.1,0.7-0.2,1-0.2c0.4,0,0.7-0.1,1.1-0.1c0.4,0,0.7,0,1,0c0-0.4-0.1-0.7-0.4-0.9c-0.3-0.2-0.6-0.3-1-0.3c-0.4,0-0.7,0.1-1,0.2
		c-0.3,0.2-0.6,0.4-0.8,0.6l-1.2-1.2c0.4-0.4,0.9-0.7,1.4-0.9c0.5-0.2,1.1-0.3,1.7-0.3c0.6,0,1.2,0.1,1.6,0.2c0.4,0.2,0.7,0.4,1,0.7
		c0.2,0.3,0.4,0.7,0.5,1.2c0.1,0.5,0.1,1,0.1,1.6v3.6h-2V27.6z M63.9,25.4c-0.2,0-0.4,0-0.6,0c-0.2,0-0.5,0.1-0.7,0.1
		s-0.4,0.2-0.6,0.3c-0.2,0.1-0.2,0.3-0.2,0.6c0,0.3,0.1,0.5,0.3,0.6c0.2,0.1,0.5,0.2,0.7,0.2c0.2,0,0.4,0,0.6-0.1
		c0.2-0.1,0.4-0.1,0.5-0.2c0.2-0.1,0.3-0.2,0.4-0.4c0.1-0.2,0.1-0.4,0.1-0.6v-0.5H63.9z"/>
</g>
<g>
	<path d="M67.9,21.4h2.2v1.1h0c0.2-0.4,0.5-0.8,0.8-1c0.3-0.2,0.7-0.3,1.2-0.3c0.1,0,0.3,0,0.4,0c0.1,0,0.2,0,0.4,0.1v2
		c-0.2,0-0.3-0.1-0.5-0.1c-0.2,0-0.3,0-0.5,0c-0.4,0-0.8,0.1-1,0.2c-0.2,0.1-0.4,0.3-0.6,0.5c-0.1,0.2-0.2,0.5-0.3,0.8
		c0,0.3-0.1,0.6-0.1,1v3h-2.2V21.4z"/>
</g>
<g>
	<path d="M78.3,27.6L78.3,27.6c-0.3,0.4-0.6,0.7-1,0.8s-0.8,0.2-1.3,0.2c-0.3,0-0.7,0-1-0.1c-0.3-0.1-0.6-0.2-0.8-0.4
		c-0.2-0.2-0.4-0.4-0.6-0.7c-0.1-0.3-0.2-0.6-0.2-1c0-0.4,0.1-0.8,0.2-1c0.2-0.3,0.4-0.5,0.6-0.7c0.3-0.2,0.6-0.3,0.9-0.4
		c0.3-0.1,0.7-0.2,1-0.2c0.4,0,0.7-0.1,1.1-0.1c0.4,0,0.7,0,1,0c0-0.4-0.1-0.7-0.4-0.9c-0.3-0.2-0.6-0.3-1-0.3c-0.4,0-0.7,0.1-1,0.2
		c-0.3,0.2-0.6,0.4-0.8,0.6l-1.2-1.2c0.4-0.4,0.9-0.7,1.4-0.9c0.5-0.2,1.1-0.3,1.7-0.3c0.6,0,1.2,0.1,1.6,0.2c0.4,0.2,0.7,0.4,1,0.7
		c0.2,0.3,0.4,0.7,0.5,1.2c0.1,0.5,0.1,1,0.1,1.6v3.6h-2V27.6z M77.8,25.4c-0.2,0-0.4,0-0.6,0c-0.2,0-0.5,0.1-0.7,0.1
		s-0.4,0.2-0.6,0.3c-0.2,0.1-0.2,0.3-0.2,0.6c0,0.3,0.1,0.5,0.3,0.6c0.2,0.1,0.5,0.2,0.7,0.2c0.2,0,0.4,0,0.6-0.1
		c0.2-0.1,0.4-0.1,0.5-0.2c0.2-0.1,0.3-0.2,0.4-0.4c0.1-0.2,0.1-0.4,0.1-0.6v-0.5H77.8z"/>
</g>
<g>
	<path d="M89.2,28.5h-2v-0.9h0c-0.1,0.1-0.2,0.3-0.3,0.4c-0.1,0.1-0.3,0.3-0.5,0.4c-0.2,0.1-0.4,0.2-0.6,0.3s-0.5,0.1-0.7,0.1
		c-0.5,0-1-0.1-1.4-0.3c-0.4-0.2-0.8-0.4-1.1-0.8s-0.5-0.7-0.7-1.2c-0.2-0.4-0.2-0.9-0.2-1.5c0-0.5,0.1-1,0.2-1.4
		c0.2-0.5,0.4-0.9,0.6-1.2c0.3-0.4,0.6-0.6,1-0.8c0.4-0.2,0.9-0.3,1.4-0.3c0.5,0,0.9,0.1,1.3,0.2c0.4,0.1,0.7,0.4,1,0.7h0v-4.7h2.2
		V28.5z M87.2,25c0-0.5-0.2-1-0.5-1.3c-0.3-0.3-0.7-0.5-1.3-0.5c-0.6,0-1,0.2-1.3,0.5c-0.3,0.3-0.5,0.8-0.5,1.3s0.2,1,0.5,1.3
		c0.3,0.3,0.7,0.5,1.3,0.5c0.6,0,1-0.2,1.3-0.5C87,25.9,87.2,25.5,87.2,25z"/>
</g>
<g>
	<path d="M90.8,19.2c0-0.4,0.1-0.7,0.4-0.9c0.2-0.2,0.5-0.4,0.9-0.4c0.4,0,0.7,0.1,0.9,0.4c0.2,0.2,0.4,0.6,0.4,0.9
		c0,0.4-0.1,0.7-0.4,0.9c-0.2,0.2-0.5,0.4-0.9,0.4c-0.4,0-0.7-0.1-0.9-0.4C90.9,19.8,90.8,19.5,90.8,19.2z M91,21.4h2.2v7.1H91V21.4
		z"/>
</g>
<g>
	<path d="M102.2,27.9c0,1.3-0.3,2.4-1,3.1c-0.7,0.7-1.7,1-3.1,1c-0.6,0-1.3-0.1-1.9-0.2c-0.6-0.1-1.2-0.4-1.7-0.8l1.2-1.8
		c0.3,0.3,0.7,0.5,1.1,0.7c0.4,0.2,0.8,0.2,1.2,0.2c0.7,0,1.2-0.2,1.5-0.5c0.3-0.3,0.5-0.7,0.5-1.3v-0.7h0c-0.3,0.3-0.6,0.6-0.9,0.7
		c-0.4,0.1-0.7,0.2-1.1,0.2c-0.5,0-1-0.1-1.4-0.3c-0.4-0.2-0.8-0.4-1.1-0.8c-0.3-0.3-0.5-0.7-0.7-1.2c-0.2-0.4-0.2-0.9-0.2-1.5
		c0-0.5,0.1-0.9,0.2-1.4c0.2-0.5,0.4-0.8,0.6-1.2c0.3-0.3,0.6-0.6,1-0.8c0.4-0.2,0.9-0.3,1.4-0.3c0.3,0,0.6,0,0.9,0.1
		c0.3,0.1,0.5,0.2,0.7,0.3c0.2,0.1,0.4,0.2,0.5,0.4c0.1,0.1,0.3,0.3,0.4,0.4h0v-0.9h2V27.9z M96.7,24.9c0,0.2,0,0.5,0.1,0.7
		c0.1,0.2,0.2,0.4,0.4,0.6c0.2,0.2,0.3,0.3,0.6,0.4c0.2,0.1,0.4,0.1,0.7,0.1c0.2,0,0.5,0,0.7-0.1c0.2-0.1,0.4-0.2,0.6-0.4
		c0.2-0.2,0.3-0.3,0.4-0.6c0.1-0.2,0.1-0.4,0.1-0.7s0-0.5-0.1-0.7c-0.1-0.2-0.2-0.4-0.4-0.6c-0.2-0.2-0.3-0.3-0.6-0.4
		c-0.2-0.1-0.4-0.1-0.7-0.1c-0.3,0-0.5,0-0.7,0.1c-0.2,0.1-0.4,0.2-0.6,0.4c-0.2,0.2-0.3,0.3-0.4,0.6C96.7,24.5,96.7,24.7,96.7,24.9
		z"/>
</g>
<g>
	<path d="M104,21.4h2.1v1h0c0.1-0.1,0.2-0.3,0.3-0.4c0.1-0.1,0.3-0.3,0.5-0.4c0.2-0.1,0.4-0.2,0.6-0.3c0.2-0.1,0.5-0.1,0.7-0.1
		c0.5,0,0.9,0.1,1.3,0.3c0.4,0.2,0.7,0.5,0.9,1c0.3-0.5,0.6-0.8,0.9-1c0.4-0.2,0.8-0.3,1.3-0.3c0.5,0,0.9,0.1,1.2,0.2
		c0.3,0.2,0.6,0.4,0.8,0.7c0.2,0.3,0.3,0.6,0.4,1c0.1,0.4,0.1,0.8,0.1,1.2v4.2H113v-4.1c0-0.3-0.1-0.6-0.2-0.9
		c-0.1-0.2-0.4-0.4-0.8-0.4c-0.3,0-0.5,0-0.6,0.1c-0.2,0.1-0.3,0.2-0.4,0.3c-0.1,0.1-0.2,0.3-0.2,0.5c0,0.2-0.1,0.4-0.1,0.6v3.8
		h-2.2v-3.8c0-0.1,0-0.3,0-0.5c0-0.2,0-0.4-0.1-0.5c-0.1-0.2-0.2-0.3-0.3-0.4c-0.1-0.1-0.3-0.2-0.6-0.2c-0.3,0-0.5,0.1-0.7,0.2
		c-0.2,0.1-0.3,0.2-0.4,0.4c-0.1,0.2-0.2,0.4-0.2,0.6c0,0.2,0,0.4,0,0.7v3.5H104V21.4z"/>
</g>
</svg>
