<?xml version="1.0" encoding="utf-8"?>
<!-- Generator: Adobe Illustrator 16.0.0, SVG Export Plug-In . SVG Version: 6.00 Build 0)  -->
<!DOCTYPE svg PUBLIC "-//W3C//DTD SVG 1.1//EN" "http://www.w3.org/Graphics/SVG/1.1/DTD/svg11.dtd">
<svg version="1.1" id="Layer_1" xmlns="http://www.w3.org/2000/svg" xmlns:xlink="http://www.w3.org/1999/xlink" x="0px" y="0px"
	 width="50px" height="50px" viewBox="0 0 50 50" enable-background="new 0 0 50 50" xml:space="preserve">
<path d="M14.978,36.592c-4.721-0.476-7.87-2.773-9.622-7.219c1.515,0,2.893,0,4.272,0c0.009-0.072,0.017-0.141,0.026-0.211
	c-4.894-1.576-7.561-4.88-7.934-10.03c1.509,0.42,2.938,0.817,4.369,1.216c0.044-0.083,0.088-0.168,0.132-0.252
	c-2.577-1.95-4.078-4.497-4.331-7.714c-0.163-2.071,0.263-4.02,1.351-5.901c5.607,6.539,12.611,10.156,21.155,10.753
	c0-1.355-0.161-2.64,0.029-3.868c0.623-4.022,2.899-6.837,6.726-8.203c3.795-1.358,7.299-0.597,10.345,2.043
	c0.51,0.44,0.926,0.634,1.567,0.395c1.842-0.685,3.694-1.336,5.516-1.992c-0.688,2.094-2.112,3.802-4.006,5.173
	c0.05,0.086,0.098,0.172,0.146,0.258c1.688-0.463,3.373-0.926,5.255-1.442c-0.599,0.754-1.06,1.442-1.63,2.025
	c-0.905,0.927-1.858,1.813-2.845,2.654c-0.407,0.348-0.559,0.66-0.549,1.205c0.185,12.047-7.189,24.542-20.045,28.538
	c-8.526,2.647-16.736,1.748-24.489-2.785C0.295,41.165,0.183,41.08,0.07,41c-0.018-0.014-0.019-0.05-0.043-0.126
	C5.499,41.354,10.431,39.994,14.978,36.592z"/>
</svg>
